<svg width="15" height="17" viewBox="0 0 15 17" fill="none" xmlns="http://www.w3.org/2000/svg">
<path d="M13.9786 0.962072H11.5699V0H10.6145V0.962072H4.38532V0H3.42991V0.962072H1.0212C0.458067 0.962072 0 1.48621 0 2.13066V14.9028C0 15.5473 0.458032 16.0714 1.0212 16.0714H13.9788C14.5419 16.0714 15 15.5473 15 14.9028L14.9999 2.13066C14.9999 1.48625 14.5418 0.962072 13.9787 0.962072H13.9786ZM0.955302 2.13066C0.955302 2.08911 0.984783 2.05538 1.02109 2.05538H3.4298V3.01745H4.38521V2.05538H10.6144V3.01745H11.5698V2.05538H13.9785C14.0148 2.05538 14.0443 2.08911 14.0443 2.13066V4.2368H0.955288L0.955302 2.13066ZM14.0443 14.9028C14.0443 14.9444 14.0148 14.9781 13.9785 14.9781H1.02124C0.984935 14.9781 0.955456 14.9444 0.955456 14.9028V5.3301H14.0444L14.0443 14.9028Z" fill="black"/>
<path d="M5.13104 6.49744H6.21676V7.51785H5.13104V6.49744Z" fill="black"/>
<path d="M8.33887 6.96155H9.50213V8.05484H8.33887V6.96155Z" fill="black"/>
<path d="M11.1805 6.96155H12.3438V8.05484H11.1805V6.96155Z" fill="black"/>
<path d="M2.65619 9.60718H3.81946V10.7005H2.65619V9.60718Z" fill="black"/>
<path d="M5.49756 9.60718H6.66083V10.7005H5.49756V9.60718Z" fill="black"/>
<path d="M8.33887 9.60718H9.50213V10.7005H8.33887V9.60718Z" fill="black"/>
<path d="M11.1805 9.60718H12.3438V10.7005H11.1805V9.60718Z" fill="black"/>
<path d="M2.65619 12.2528H3.81946V13.3461H2.65619V12.2528Z" fill="black"/>
<path d="M5.49756 12.2528H6.66083V13.3461H5.49756V12.2528Z" fill="black"/>
<path d="M8.33887 12.2528H9.50213V13.3461H8.33887V12.2528Z" fill="black"/>
</svg>
