<svg width="16" height="16" viewBox="0 0 16 16" fill="none" xmlns="http://www.w3.org/2000/svg">
<path d="M15.3739 4.86957C14.9565 3.93043 14.4 3.06087 13.6696 2.33043C12.9391 1.6 12.0696 1.0087 11.1304 0.626087C10.1217 0.208696 9.07826 0 8 0C6.92174 0 5.87826 0.208696 4.86957 0.626087C3.93043 1.04348 3.06087 1.6 2.33043 2.33043C1.6 3.06087 1.0087 3.93043 0.626087 4.86957C0.208696 5.87826 0 6.92174 0 8C0 9.07826 0.208696 10.1217 0.626087 11.1304C1.04348 12.0696 1.6 12.9391 2.33043 13.6696C3.06087 14.4 3.93043 14.9913 4.86957 15.3739C5.84348 15.7913 6.88696 16 8 16C9.11304 16 10.1217 15.7913 11.1304 15.3739C12.0696 14.9565 12.9391 14.4 13.6696 13.6696C14.4 12.9391 14.9913 12.0696 15.3739 11.1304C15.7913 10.1565 16 9.11304 16 8C16 6.88696 15.7913 5.87826 15.3739 4.86957ZM8 15.0957C4.06957 15.0957 0.904348 11.8957 0.904348 8C0.904348 4.10435 4.06957 0.904348 8 0.904348C11.9304 0.904348 15.0957 4.06957 15.0957 8C15.0957 11.9304 11.9304 15.0957 8 15.0957Z" fill="black"/>
<path d="M7.54755 1.49573H8.48668V2.43486H7.54755V1.49573Z" fill="black"/>
<path d="M4.3468 2.58734L5.16016 2.1178L5.6297 2.93115L4.81635 3.4007L4.3468 2.58734Z" fill="black"/>
<path d="M2.13544 5.1593L2.60498 4.34595L3.41834 4.81549L2.94879 5.62885L2.13544 5.1593Z" fill="black"/>
<path d="M1.49591 7.54749H2.43504V8.48662H1.49591V7.54749Z" fill="black"/>
<path d="M2.11798 10.8397L2.93134 10.3701L3.40088 11.1835L2.58753 11.653L2.11798 10.8397Z" fill="black"/>
<path d="M4.34558 13.3951L4.81513 12.5818L5.62848 13.0513L5.15894 13.8647L4.34558 13.3951Z" fill="black"/>
<path d="M7.54755 13.5652H8.48668V14.5043H7.54755V13.5652Z" fill="black"/>
<path d="M10.3695 13.0684L11.1829 12.5989L11.6524 13.4122L10.8391 13.8818L10.3695 13.0684Z" fill="black"/>
<path d="M12.5814 11.1848L13.0509 10.3715L13.8643 10.841L13.3947 11.6544L12.5814 11.1848Z" fill="black"/>
<path d="M13.5652 7.54749H14.5044V8.48662H13.5652V7.54749Z" fill="black"/>
<path d="M12.5984 4.81622L13.4118 4.34668L13.8814 5.16004L13.068 5.62958L12.5984 4.81622Z" fill="black"/>
<path d="M10.3712 2.94934L10.8408 2.13599L11.6541 2.60553L11.1846 3.41889L10.3712 2.94934Z" fill="black"/>
<path d="M11.4432 7.54743H8.45189V3.72134C8.45189 3.47786 8.2432 3.26917 7.99972 3.26917C7.75624 3.26917 7.54755 3.47786 7.54755 3.72134V7.9994C7.54755 8.24288 7.75624 8.45158 7.99972 8.45158H11.4432C11.6867 8.45158 11.8954 8.24288 11.8954 7.9994C11.8954 7.75592 11.6867 7.54723 11.4432 7.54723V7.54743Z" fill="black"/>
</svg>
