<svg width="17" height="22" viewBox="0 0 17 22" fill="none" xmlns="http://www.w3.org/2000/svg">
<path d="M16.4893 7.14932C16.4872 7.10865 16.4834 7.06798 16.4801 7.02805C16.4753 6.94671 16.469 6.86636 16.4609 6.78577C16.455 6.73869 16.4487 6.69235 16.4425 6.64527C16.4333 6.57207 16.4241 6.5001 16.413 6.42813C16.4038 6.37809 16.3968 6.33003 16.3865 6.28221C16.3743 6.21197 16.36 6.14271 16.3459 6.0732C16.3357 6.02514 16.3246 5.97609 16.3135 5.92802C16.2972 5.85975 16.2799 5.79197 16.2618 5.72369C16.2488 5.67662 16.2364 5.62831 16.2223 5.58222C16.2031 5.51295 16.1806 5.44517 16.1582 5.3769C16.1441 5.33253 16.1298 5.28718 16.1146 5.2438C16.0892 5.17059 16.0619 5.09862 16.0335 5.02739C16.0194 4.98944 16.005 4.95074 15.9907 4.9118C15.9501 4.8137 15.9085 4.71585 15.8638 4.61849C15.8589 4.60913 15.8546 4.59902 15.8508 4.58891C15.8011 4.48244 15.7483 4.37818 15.6945 4.27441C15.6761 4.23916 15.655 4.20318 15.6357 4.16719C15.5981 4.1004 15.5616 4.03311 15.5229 3.96631C15.4986 3.92564 15.4731 3.88497 15.4469 3.84332C15.4104 3.78491 15.3747 3.726 15.3362 3.66758C15.3089 3.62494 15.2794 3.58254 15.2499 3.54089C15.2123 3.48544 15.175 3.42998 15.1341 3.37624C15.1046 3.3336 15.0733 3.2922 15.0419 3.25054C15.0013 3.19705 14.9596 3.14505 14.9191 3.0923C14.8866 3.05163 14.853 3.01096 14.8195 2.97103C14.7767 2.91927 14.731 2.86825 14.6864 2.81674C14.6528 2.77878 14.6196 2.74009 14.5849 2.70287C14.5362 2.64938 14.4864 2.59836 14.4367 2.54561C14.4031 2.51234 14.3706 2.47734 14.3382 2.4448C14.2741 2.38097 14.2083 2.31811 14.1412 2.25698C14.1158 2.23382 14.0925 2.20991 14.0671 2.18674C13.984 2.11181 13.8996 2.03786 13.8122 1.96663C13.7768 1.93607 13.7381 1.90649 13.7016 1.87691C13.6448 1.83156 13.5879 1.78621 13.53 1.74185C13.4873 1.70956 13.4448 1.67801 13.4013 1.64646C13.3474 1.60678 13.2928 1.56685 13.2368 1.52913C13.19 1.49759 13.1445 1.46628 13.0977 1.43572C13.052 1.40515 13.0073 1.37558 12.9616 1.34699C12.9576 1.34403 12.9535 1.34255 12.9505 1.3396C12.9435 1.3359 12.9383 1.3322 12.9313 1.3285C12.8837 1.29794 12.8347 1.26836 12.7863 1.23878C12.7295 1.20452 12.6727 1.17199 12.6158 1.13995C12.5661 1.11136 12.5163 1.08252 12.4646 1.0559C12.4646 1.05492 12.4646 1.05492 12.4635 1.05393C12.4565 1.05023 12.4495 1.04555 12.4413 1.0421C12.3905 1.01449 12.3399 0.989352 12.2882 0.962487C12.2384 0.936607 12.1878 0.910727 12.137 0.885836C12.0739 0.855272 12.012 0.826681 11.9492 0.797845C11.9289 0.788479 11.9086 0.778374 11.8894 0.77024C11.8591 0.756437 11.8296 0.742634 11.7991 0.729571C11.7241 0.697283 11.6478 0.66672 11.5696 0.63517C11.5209 0.615699 11.4722 0.595487 11.4203 0.576016C11.4073 0.570593 11.3908 0.56591 11.3767 0.560241C11.3513 0.550136 11.3251 0.541756 11.2996 0.532636C11.2355 0.509467 11.1727 0.485559 11.1089 0.464364C11.058 0.447604 11.0085 0.432075 10.9576 0.4163C10.8946 0.396829 10.8308 0.375632 10.7677 0.357146C10.7618 0.355174 10.7526 0.353449 10.7463 0.351723C10.6914 0.334963 10.6346 0.32116 10.5778 0.306371C10.511 0.287886 10.4436 0.270386 10.3757 0.253625C10.3197 0.239823 10.2629 0.227745 10.2071 0.214682C10.1817 0.20926 10.1563 0.20359 10.1311 0.197922C10.0865 0.188555 10.0426 0.179436 9.99799 0.171056C9.9382 0.159225 9.87813 0.147887 9.81834 0.137782C9.78587 0.132359 9.7553 0.124965 9.72284 0.120282L9.72175 0.121268C9.67197 0.113873 9.62219 0.105493 9.57349 0.0980988C9.55834 0.0951411 9.54211 0.0926765 9.52669 0.0907045C9.3419 0.0638386 9.15414 0.0453526 8.96529 0.0305636C8.91957 0.0268665 8.87493 0.0241556 8.83029 0.0211975C8.63847 0.00936661 8.44556 0 8.24969 0C3.69466 0 0 3.36465 0 7.51625C0 7.71319 0.00811662 7.9111 0.0202913 8.10902C0.0243496 8.16645 0.0305717 8.22364 0.0343589 8.28205C0.0465336 8.43093 0.0616846 8.58078 0.0811643 8.72966C0.089281 8.78413 0.0941506 8.83885 0.101456 8.89332C0.129864 9.08927 0.16233 9.28546 0.201018 9.48068C0.206971 9.50828 0.213193 9.53515 0.219416 9.563C0.254858 9.73406 0.293546 9.90339 0.336294 10.0744C0.351445 10.1353 0.36876 10.1967 0.383911 10.2576C0.423411 10.4045 0.466159 10.5516 0.509717 10.6978C0.525951 10.7513 0.541101 10.8043 0.557334 10.857C0.618208 11.0475 0.682329 11.2378 0.75132 11.4276C0.767554 11.4747 0.786763 11.522 0.804078 11.5688C0.859 11.7147 0.915816 11.8612 0.974522 12.0068C1.00104 12.0736 1.02836 12.1399 1.05569 12.2067C1.1144 12.3438 1.17446 12.4803 1.23534 12.6173C1.25969 12.6728 1.28404 12.7265 1.30947 12.782C1.39253 12.9614 1.47802 13.1391 1.56514 13.3166C1.59761 13.3814 1.63116 13.4443 1.6647 13.5091C1.72558 13.6294 1.78753 13.7477 1.85138 13.868C1.89196 13.9419 1.93174 14.0159 1.97205 14.0901C2.03698 14.2084 2.10299 14.3249 2.17009 14.4398C2.20553 14.5046 2.24017 14.5675 2.27777 14.6303C2.363 14.7762 2.45255 14.9244 2.53966 15.0686L2.54075 15.0666C2.81887 15.5216 3.10728 15.962 3.40055 16.3875C3.41787 16.4116 3.43518 16.4338 3.45142 16.4577C3.56829 16.6261 3.68598 16.7907 3.80476 16.9534C3.83939 17.0015 3.87375 17.0478 3.90838 17.0959C4.012 17.2383 4.11751 17.3769 4.22114 17.5139C4.26064 17.5657 4.29932 17.6174 4.33882 17.6692C4.4392 17.7988 4.53876 17.9262 4.63751 18.052C4.6781 18.1037 4.71868 18.1537 4.75926 18.2055C4.85774 18.3295 4.95622 18.4498 5.05362 18.5681C5.09123 18.6144 5.12965 18.6625 5.16833 18.7086C5.26978 18.8308 5.37043 18.9491 5.46864 19.0657C5.5011 19.1047 5.53357 19.1414 5.56414 19.1786C5.67371 19.3063 5.78139 19.4303 5.88799 19.5505C5.9072 19.5727 5.92858 19.5969 5.94778 19.6208C6.3317 20.0536 6.68805 20.4383 7.00048 20.7639C7.01969 20.7841 7.03701 20.8029 7.05649 20.8214C7.13874 20.9084 7.21773 20.9897 7.29403 21.0673C7.31946 21.0915 7.34084 21.1154 7.36519 21.1396C7.4312 21.2064 7.49397 21.2709 7.55511 21.3301C7.57946 21.356 7.60381 21.3781 7.62735 21.4003C7.68119 21.4558 7.73205 21.5058 7.78048 21.5522C7.80185 21.5743 7.82323 21.5948 7.84352 21.615C7.88924 21.6577 7.92983 21.6981 7.96852 21.7353C7.98583 21.7501 8.00098 21.7668 8.01722 21.7816C8.05266 21.8149 8.08215 21.8445 8.11056 21.8704C8.12273 21.8814 8.13491 21.8925 8.14519 21.9019C8.17468 21.9295 8.19497 21.9482 8.21201 21.9648C8.21607 21.9685 8.21905 21.9721 8.22311 21.9741C8.24042 21.9909 8.24962 22 8.24962 22C8.24962 22 16.5 14.786 16.5 7.51709C16.4992 7.39261 16.4954 7.27036 16.4889 7.1491L16.4893 7.14932ZM8.24934 13.4863C8.05941 13.4863 7.87165 13.4769 7.68497 13.4621C7.66468 13.4601 7.64439 13.4584 7.6241 13.4567C7.44554 13.4419 7.27076 13.4197 7.09734 13.3919C7.0719 13.3864 7.04566 13.3825 7.02131 13.3791C6.84977 13.3495 6.67825 13.3123 6.51078 13.2718C6.4894 13.2664 6.47019 13.2607 6.44882 13.2551C6.27621 13.2107 6.10576 13.159 5.9391 13.1015C5.93098 13.0995 5.92395 13.0961 5.91691 13.0941C5.20131 12.8444 4.5452 12.4856 3.97601 12.038C3.92731 11.999 3.87645 11.9603 3.82883 11.9214V11.9194C3.74767 11.8531 3.66948 11.7841 3.5921 11.7126C3.58506 11.7065 3.57803 11.6991 3.56991 11.6924C3.50309 11.6288 3.43572 11.564 3.37106 11.4982C3.35591 11.4827 3.34265 11.4679 3.3275 11.4519C3.27068 11.3937 3.21468 11.3345 3.16003 11.2737C3.14163 11.2535 3.12458 11.2318 3.10619 11.2108C3.05857 11.1544 3.0096 11.0979 2.96307 11.0405C2.94277 11.0146 2.92248 10.9887 2.90327 10.9638C2.86053 10.9094 2.81805 10.8539 2.77828 10.7975C2.75799 10.7689 2.73661 10.74 2.7174 10.7105C2.67871 10.657 2.64246 10.6023 2.60675 10.5468C2.58537 10.5153 2.56616 10.483 2.54587 10.4514C2.51232 10.397 2.47986 10.3422 2.44739 10.2878C2.42818 10.2535 2.4087 10.2185 2.38949 10.1842C2.36 10.1308 2.33078 10.075 2.30318 10.0206C2.28398 9.98459 2.26666 9.94737 2.24826 9.91065C2.22175 9.85716 2.1974 9.80245 2.17332 9.74698C2.15601 9.70903 2.13869 9.67033 2.12246 9.63139C2.10027 9.57593 2.07782 9.52146 2.05753 9.46501C2.04238 9.42533 2.02722 9.3854 2.01289 9.34474C1.99368 9.28928 1.97528 9.23284 1.95688 9.17738C1.94389 9.13573 1.92956 9.09506 1.91819 9.05266C1.90088 8.99622 1.88681 8.93879 1.87247 8.88161C1.86138 8.83995 1.85028 8.79855 1.84 8.75492C1.82702 8.69749 1.81565 8.63833 1.80348 8.57918C1.79536 8.53654 1.78616 8.49513 1.77805 8.45249C1.76777 8.39161 1.75965 8.32852 1.75072 8.26665C1.74585 8.22598 1.73855 8.18531 1.73449 8.14538C1.72637 8.07612 1.7215 8.00588 1.71609 7.93637C1.71284 7.90211 1.71014 7.8681 1.70689 7.83285C1.70094 7.72835 1.69769 7.6231 1.69769 7.51662C1.69769 4.2205 4.63152 1.54766 8.24965 1.54766C8.36842 1.54766 8.48639 1.55309 8.60191 1.55876C8.80184 1.56812 8.99772 1.58365 9.19171 1.60978C9.19495 1.60978 9.19766 1.61076 9.19982 1.61076C9.20199 1.61076 9.20388 1.61175 9.20686 1.61175C9.39462 1.63664 9.57941 1.6709 9.76122 1.70985C9.80396 1.71921 9.84536 1.72932 9.88702 1.73844C10.0545 1.77812 10.219 1.8215 10.3805 1.87252C10.3978 1.87794 10.417 1.88361 10.4354 1.88928H10.4365C10.6132 1.94572 10.7877 2.01153 10.9584 2.08178C10.996 2.09756 11.0325 2.11505 11.0691 2.13083C11.207 2.19097 11.3412 2.2548 11.473 2.32235C11.5106 2.34182 11.5471 2.3603 11.5826 2.37977C11.7379 2.46284 11.8883 2.55083 12.0333 2.64523C12.0495 2.65533 12.0669 2.66544 12.082 2.67678C12.2313 2.77488 12.3753 2.87839 12.5154 2.98759C12.5317 3.0004 12.5479 3.01248 12.563 3.02554C12.6999 3.13547 12.8341 3.25033 12.9599 3.36962C12.9751 3.38441 12.9902 3.3992 13.0057 3.41399C13.1315 3.53328 13.2502 3.65825 13.3641 3.78765C13.3782 3.80441 13.3926 3.81994 13.4058 3.8367C13.5194 3.96807 13.6263 4.10215 13.7267 4.24092C13.7389 4.25768 13.75 4.27518 13.7621 4.29268C13.8617 4.43317 13.955 4.57662 14.0413 4.72451C14.0516 4.74201 14.0605 4.75976 14.0708 4.77726C14.155 4.92711 14.2353 5.08067 14.3054 5.23694C14.3146 5.2537 14.3205 5.2712 14.3287 5.28796C14.3998 5.44718 14.4629 5.60986 14.5186 5.77623C14.5226 5.79102 14.5278 5.80581 14.5327 5.8206C14.5876 5.98993 14.6352 6.16197 14.6739 6.33746C14.6771 6.34855 14.6779 6.36063 14.682 6.3727C14.7196 6.55214 14.7499 6.73429 14.7705 6.9184C14.7705 6.9258 14.7705 6.9322 14.7716 6.9396C14.7918 7.13012 14.8029 7.32238 14.8029 7.51759C14.8021 10.813 11.8683 13.4863 8.24938 13.4863L8.24934 13.4863Z" fill="black"/>
<path d="M11.4495 4.62447L11.1976 4.4719C10.955 4.325 10.5875 4.43863 10.3765 4.72725L7.54495 8.60608L5.99683 6.76665C5.84749 6.58894 5.53797 6.57612 5.30665 6.73806L5.06722 6.90541C4.8359 7.0671 4.76853 7.34192 4.91788 7.51939L6.74921 9.69552L7.62335 10.7342L8.4193 9.64378L11.5085 5.41349C11.7182 5.12511 11.6919 4.77165 11.4495 4.62451L11.4495 4.62447Z" fill="black"/>
</svg>
