<svg width="17" height="16" viewBox="0 0 17 16" fill="none" xmlns="http://www.w3.org/2000/svg">
<path d="M15.9135 5.81846C15.2033 3.09582 13.0133 0.905876 10.2612 0.225047C7.50918 -0.455782 4.52003 0.432204 2.62602 2.56297C0.288097 5.16723 -0.00784162 9.07362 1.88617 12.033C1.7382 13.0984 1.61982 14.1638 1.47185 15.2292C1.41267 15.6139 1.88617 15.8802 2.2117 15.7914C3.24749 15.4955 4.31287 15.2292 5.34866 14.9332C8.16008 16.0874 11.4156 15.5547 13.6647 13.4831C15.7659 11.5595 16.6241 8.5411 15.9138 5.81846H15.9135ZM13.8419 11.5303C12.0663 14.1345 8.57422 15.1113 5.70378 13.809H5.67419C5.55581 13.7498 5.40784 13.7202 5.23028 13.7498C4.40165 13.9865 3.57302 14.1937 2.74439 14.4305C2.83317 13.7202 2.92195 13.0395 3.01074 12.3293C3.04033 12.0925 3.09952 11.8262 2.98114 11.5894C2.89236 11.4415 2.77399 11.2935 2.6852 11.1159C2.47805 10.7608 2.30048 10.3761 2.15251 9.99137C1.67901 8.63005 1.64942 7.12076 2.09333 5.75961C2.86277 3.36251 5.05272 1.55728 7.5386 1.26134C10.1133 0.906214 12.6879 2.14916 14.0195 4.30951C15.3808 6.52905 15.292 9.3699 13.8419 11.5304V11.5303Z" fill="white"/>
<path d="M12.51 8.74844L11.1783 7.71265C10.764 7.38712 10.2017 7.4463 9.84657 7.80143L9.46185 8.18615C9.16591 8.00859 8.89957 7.80143 8.63322 7.56468C8.39647 7.32793 8.18932 7.03199 8.01175 6.73605L8.39647 6.35133C8.7516 5.9962 8.78119 5.43392 8.48525 5.0196L7.44947 3.65828C7.24231 3.36235 6.91678 3.18478 6.56165 3.18478C6.20652 3.15519 5.8514 3.30316 5.61465 3.53991L4.46048 4.69407C3.80942 5.34514 3.66145 6.35133 4.07576 7.17996C4.63805 8.24534 5.3483 9.19234 6.17693 10.021C7.00556 10.8496 7.98216 11.5599 9.01794 12.1221C9.34348 12.2997 9.66901 12.3589 9.99454 12.3589C10.5272 12.3589 11.0895 12.1517 11.4742 11.7374L12.6284 10.5833C12.8652 10.3465 13.0131 9.99138 12.9835 9.63625C12.9835 9.28113 12.806 8.95559 12.51 8.74844ZM11.7998 9.75463L10.6456 10.9088C10.3497 11.2047 9.90576 11.2639 9.55063 11.0864C8.60363 10.5833 7.74541 9.96179 6.97597 9.19234C6.20652 8.4229 5.58505 7.56468 5.08196 6.61768C4.90439 6.26255 4.96358 5.81864 5.25952 5.5227L6.41368 4.36854H6.44327C6.47287 4.36854 6.47287 4.36854 6.47287 4.39813L7.41987 5.64108L7.03515 5.9962C6.73921 6.29214 6.65043 6.76564 6.85759 7.15037C7.09434 7.62387 7.41987 8.03818 7.775 8.39331C8.13013 8.74844 8.54444 9.07397 9.01794 9.31072C9.40266 9.51788 9.84657 9.4291 10.1425 9.13316L10.5568 8.71884L11.7702 9.66585C11.7702 9.66585 11.7998 9.66585 11.7998 9.69544V9.75463Z" fill="white"/>
</svg>
